{"title":"Singh Saab The Great 2013 Hindi Movies HDDVDScr x264 New Source ","uid":9242220,"size":741886714,"categoryP":"video","categoryS":"movies","magnet":"?xt=urn:btih:5d51c9ac4c1714458b65d3a5e50d121943073140&amp;dn=Singh+Saab+The+Great+2013+Hindi+Movies+HDDVDScr+x264+New+Source+&amp;tr=udp%3A%2F%2Ftracker.openbittorrent.com%3A80&amp;tr=udp%3A%2F%2Fopen.demonii.com%3A1337&amp;tr=udp%3A%2F%2Ftracker.coppersurfer.tk%3A6969&amp;tr=udp%3A%2F%2Fexodus.desync.com%3A6969","seeders":1,"leechers":1,"uploader":"basicssom","files":2,"time":1385253391,"description":" &lt;a href=&quot;http://s5.postimg.org/hgeuxszk7/logo.png&quot; rel=&quot;nofollow&quot; target=&quot;_NEW&quot;&gt;http://s5.postimg.org/hgeuxszk7/logo.png&lt;/a&gt;\n\nSingh Saab The Great 2013 Hindi Movies HDDVDScr x264 New Source with Sample ~ â˜»rDXâ˜»\n\nPlease check SCREEN SHOTS first :\n &lt;a href=&quot;\nhttp://imageshere.co.nr/2013/11/SinghSaabTheGreatDS/1.html&quot; rel=&quot;nofollow&quot; target=&quot;_NEW&quot;&gt;\nhttp://imageshere.co.nr/2013/11/SinghSaabTheGreatDS/1.html&lt;/a&gt;\n &lt;a href=&quot;\nhttp://imageshere.co.nr/2013/11/SinghSaabTheGreatDS/2.html&quot; rel=&quot;nofollow&quot; target=&quot;_NEW&quot;&gt;\nhttp://imageshere.co.nr/2013/11/SinghSaabTheGreatDS/2.html&lt;/a&gt;\n &lt;a href=&quot;\nhttp://imageshere.co.nr/2013/11/SinghSaabTheGreatDS/3.html&quot; rel=&quot;nofollow&quot; target=&quot;_NEW&quot;&gt;\nhttp://imageshere.co.nr/2013/11/SinghSaabTheGreatDS/3.html&lt;/a&gt;\n &lt;a href=&quot;\nhttp://imageshere.co.nr/2013/11/SinghSaabTheGreatDS/4.html&quot; rel=&quot;nofollow&quot; target=&quot;_NEW&quot;&gt;\nhttp://imageshere.co.nr/2013/11/SinghSaabTheGreatDS/4.html&lt;/a&gt;\n &lt;a href=&quot;\nhttp://imageshere.co.nr/2013/11/SinghSaabTheGreatDS/5.html&quot; rel=&quot;nofollow&quot; target=&quot;_NEW&quot;&gt;\nhttp://imageshere.co.nr/2013/11/SinghSaabTheGreatDS/5.html&lt;/a&gt;\n &lt;a href=&quot;\nhttp://imageshere.co.nr/2013/11/SinghSaabTheGreatDS/6.html&quot; rel=&quot;nofollow&quot; target=&quot;_NEW&quot;&gt;\nhttp://imageshere.co.nr/2013/11/SinghSaabTheGreatDS/6.html&lt;/a&gt;\n\nAll rDX torrents are Seeding From the 1Gbps Seedbox 24X7\n &lt;a href=&quot;\nhttp://users2.jabry.com/myimghost/SinghSaabTheGreat/19.jpg&quot; rel=&quot;nofollow&quot; target=&quot;_NEW&quot;&gt;\nhttp://users2.jabry.com/myimghost/SinghSaabTheGreat/19.jpg&lt;/a&gt;\n &lt;a href=&quot;\nhttp://users2.jabry.com/myimghost/SinghSaabTheGreat/20.jpg&quot; rel=&quot;nofollow&quot; target=&quot;_NEW&quot;&gt;\nhttp://users2.jabry.com/myimghost/SinghSaabTheGreat/20.jpg&lt;/a&gt;\n &lt;a href=&quot;\nhttp://users2.jabry.com/myimghost/SinghSaabTheGreat/21.jpg&quot; rel=&quot;nofollow&quot; target=&quot;_NEW&quot;&gt;\nhttp://users2.jabry.com/myimghost/SinghSaabTheGreat/21.jpg&lt;/a&gt;\n &lt;a href=&quot;\nhttp://users2.jabry.com/myimghost/SinghSaabTheGreat/22.jpg&quot; rel=&quot;nofollow&quot; target=&quot;_NEW&quot;&gt;\nhttp://users2.jabry.com/myimghost/SinghSaabTheGreat/22.jpg&lt;/a&gt;\n\nFormat                                   : Matroska\nFormat version                           : Version 4 / Version 2\nFile size                                : 699 MiB\nDuration                                 : 2h 25mn\nOverall bit rate                         : 673 Kbps\nEncoded date                             : UTC 2013-11-24 11:24:03\n\nVideo\nID                                       : 1\nFormat                                   : AVC\nFormat/Info                              : Advanced Video Codec\nFormat profile                           : &lt;a class=&quot;__cf_email__&quot; href=&quot;/cdn-cgi/l/email-protection&quot; data-cfemail=&quot;b0f8d9d7d8f0fc849e81&quot;&gt;[email&amp;#160;protected]&lt;/a&gt;&lt;script cf-hash='f9e31' type=&quot;text/javascript&quot;&gt;\n/* &lt;![CDATA[ */!function(){try{var t=&quot;currentScript&quot;in document?document.currentScript:function(){for(var t=document.getElementsByTagName(&quot;script&quot;),e=t.length;e--;)if(t[e].getAttribute(&quot;cf-hash&quot;))return t[e]}();if(t&amp;&amp;t.previousSibling){var e,r,n,i,c=t.previousSibling,a=c.getAttribute(&quot;data-cfemail&quot;);if(a){for(e=&quot;&quot;,r=parseInt(a.substr(0,2),16),n=2;a.length-n;n+=2)i=parseInt(a.substr(n,2),16)^r,e+=String.fromCharCode(i);e=document.createTextNode(e),c.parentNode.replaceChild(e,c)}}}catch(u){}}();/* ]]&gt; */&lt;/script&gt;\nFormat settings, CABAC                   : Yes\nFormat settings, ReFrames                : 5 frames\nCodec ID                                 : V_MPEG4/ISO/AVC\nDuration                                 : 2h 25mn\nBit rate                                 : 594 Kbps\nWidth                                    : 608 pixels\nHeight                                   : 256 pixels\nDisplay aspect ratio                     : 2.40:1\nFrame rate mode                          : Constant\nFrame rate                               : 25.000 fps\nColor space                              : YUV\nChroma subsampling                       : 4:2:0\nBit depth                                : 8 bits\nScan type                                : Progressive\nBits/(Pixel*Frame)                       : 0.153\nStream size                              : 602 MiB (86%)\nWriting library                          : x264 core 133 r2334 a3ac64b\nLanguage                                 : English\nDefault                                  : Yes\nForced                                   : No\n\nAudio\nID                                       : 2\nFormat                                   : MPEG Audio\nFormat version                           : Version 1\nFormat profile                           : Layer 3\nMode                                     : Joint stereo\nMode extension                           : MS Stereo\nCodec ID                                 : A_MPEG/L3\nCodec ID/Hint                            : MP3\nDuration                                 : 2h 25mn\nBit rate mode                            : Constant\nBit rate                                 : 80.0 Kbps\nChannel(s)                               : 2 channels\nSampling rate                            : 32.0 KHz\nCompression mode                         : Lossy\nStream size                              : 83.3 MiB (12%)\nWriting library                          : LAME3.99r\nEncoding settings                        : -m j -V 4 -q 2 -lowpass 13.5 -b 80\nDefault                                  : Yes\nForced                                   : No","torrent":{"xt":"urn:btih:5d51c9ac4c1714458b65d3a5e50d121943073140","amp;dn":"Singh+Saab+The+Great+2013+Hindi+Movies+HDDVDScr+x264+New+Source+","amp;tr":["udp%3A%2F%2Ftracker.openbittorrent.com%3A80","udp%3A%2F%2Fopen.demonii.com%3A1337","udp%3A%2F%2Ftracker.coppersurfer.tk%3A6969","udp%3A%2F%2Fexodus.desync.com%3A6969"],"infoHash":"5d51c9ac4c1714458b65d3a5e50d121943073140","infoHashBuffer":{"type":"Buffer","data":[93,81,201,172,76,23,20,69,139,101,211,165,229,13,18,25,67,7,49,64]},"announce":[],"urlList":[]}}